<svg width="483" height="492" viewBox="0 0 483 492" fill="none" xmlns="http://www.w3.org/2000/svg">
<path d="M241.701 491.248C374.967 491.248 483 428.875 483 351.935C483 274.995 374.967 212.623 241.701 212.623C108.435 212.623 0.401978 274.995 0.401978 351.935C0.401978 428.875 108.435 491.248 241.701 491.248Z" fill="#F5F5F5"/>
<path d="M206.035 332.443C233.322 332.443 255.443 319.669 255.443 303.912C255.443 288.155 233.322 275.382 206.035 275.382C178.748 275.382 156.627 288.155 156.627 303.912C156.627 319.669 178.748 332.443 206.035 332.443Z" fill="#E0E0E0"/>
<path d="M396.658 385.159C423.222 400.498 423.222 425.328 396.658 440.698C370.093 456.068 327.017 456.047 300.464 440.698C273.91 425.35 273.899 400.529 300.464 385.149C327.028 369.768 370.093 369.8 396.658 385.159Z" fill="#E0E0E0"/>
<path d="M148.562 284.325L288.096 364.863C288.654 365.184 289.117 365.646 289.44 366.203C289.762 366.759 289.931 367.391 289.931 368.035C289.931 368.678 289.762 369.31 289.44 369.867C289.117 370.423 288.654 370.885 288.096 371.206L205.771 418.774C204.065 419.761 202.129 420.28 200.158 420.28C198.187 420.28 196.251 419.761 194.545 418.774L55.0318 338.183C54.4713 337.864 54.0052 337.403 53.6809 336.846C53.3567 336.289 53.1858 335.656 53.1858 335.012C53.1858 334.367 53.3567 333.734 53.6809 333.177C54.0052 332.62 54.4713 332.159 55.0318 331.84L137.368 284.272C139.074 283.297 141.007 282.789 142.972 282.798C144.937 282.808 146.865 283.334 148.562 284.325Z" fill="#E0E0E0"/>
<path d="M94.7883 344.25L191.49 401.745C191.836 401.948 192.123 402.239 192.323 402.587C192.523 402.936 192.628 403.331 192.628 403.732C192.628 404.134 192.523 404.529 192.323 404.877C192.123 405.226 191.836 405.516 191.49 405.72L139.693 435.603C138.621 436.221 137.405 436.546 136.168 436.546C134.93 436.546 133.714 436.221 132.642 435.603L36.0043 378.109C35.6552 377.907 35.3653 377.618 35.1637 377.269C34.9621 376.92 34.856 376.524 34.856 376.121C34.856 375.718 34.9621 375.323 35.1637 374.974C35.3653 374.625 35.6552 374.335 36.0043 374.134L87.801 344.25C88.8657 343.644 90.0696 343.326 91.2947 343.326C92.5197 343.326 93.7237 343.644 94.7883 344.25Z" fill="#E0E0E0"/>
<path d="M272.472 226.82L438.433 322.591C439.611 323.271 440.948 323.629 442.308 323.629C443.668 323.629 445.004 323.271 446.182 322.591L456.605 316.576C457.013 316.342 457.353 316.004 457.589 315.597C457.825 315.189 457.949 314.727 457.949 314.256C457.949 313.785 457.825 313.322 457.589 312.915C457.353 312.508 457.013 312.17 456.605 311.936L290.76 216.228C289.552 215.527 288.181 215.158 286.785 215.158C285.389 215.158 284.018 215.527 282.811 216.228L272.494 222.179C272.084 222.412 271.743 222.748 271.505 223.154C271.267 223.561 271.141 224.023 271.138 224.493C271.136 224.964 271.259 225.427 271.493 225.836C271.727 226.244 272.065 226.584 272.472 226.82Z" fill="#E0E0E0"/>
<path d="M284.724 221.957L445.992 315.065C446.568 315.399 447.222 315.575 447.888 315.576C448.554 315.577 449.209 315.403 449.786 315.071C450.364 314.739 450.844 314.261 451.178 313.684C451.512 313.108 451.688 312.454 451.689 311.788V99.3787C451.686 97.5659 451.207 95.7857 450.3 94.2162C449.393 92.6467 448.09 91.3431 446.52 90.4358L292.43 1.44048C291.649 0.989528 290.763 0.752145 289.861 0.752197C288.959 0.752249 288.073 0.989733 287.292 1.44077C286.511 1.89181 285.863 2.54051 285.412 3.32166C284.961 4.10281 284.724 4.98887 284.724 5.89077V221.957Z" fill="#903DE2"/>
<path opacity="0.5" d="M284.724 221.957L445.992 315.065C446.568 315.399 447.222 315.575 447.888 315.576C448.554 315.577 449.209 315.403 449.786 315.071C450.364 314.739 450.844 314.261 451.178 313.684C451.512 313.108 451.688 312.454 451.689 311.788V99.3787C451.686 97.5659 451.207 95.7857 450.3 94.2162C449.393 92.6467 448.09 91.3431 446.52 90.4358L292.43 1.44048C291.649 0.989528 290.763 0.752145 289.861 0.752197C288.959 0.752249 288.073 0.989733 287.292 1.44077C286.511 1.89181 285.863 2.54051 285.412 3.32166C284.961 4.10281 284.724 4.98887 284.724 5.89077V221.957Z" fill="white"/>
<path d="M289.29 231.714L437.165 317.084V101.239L289.29 15.8696V231.714Z" fill="#903DE2"/>
<path opacity="0.8" d="M289.29 231.714L437.165 317.084V101.239L289.29 15.8696V231.714Z" fill="white"/>
<path d="M274.851 214.473L422.725 299.843L437.165 101.239L289.291 15.8696L274.851 214.473Z" fill="#903DE2"/>
<path opacity="0.9" d="M274.851 214.473L422.725 299.843L437.165 101.239L289.291 15.8696L274.851 214.473Z" fill="white"/>
<path d="M289.29 15.8695L437.165 101.239L442.767 98.0044L294.893 12.6243L289.29 15.8695Z" fill="#903DE2"/>
<path opacity="0.7" d="M289.29 15.8695L437.165 101.239L442.767 98.0044L294.893 12.6243L289.29 15.8695Z" fill="white"/>
<path d="M442.768 98.0044V313.024L437.165 317.084V101.239L442.768 98.0044Z" fill="#903DE2"/>
<path d="M442.768 98.0044V313.024L437.165 317.084V101.239L442.768 98.0044Z" fill="#903DE2"/>
<path opacity="0.7" d="M442.768 98.0044V313.024L437.165 317.084V101.239L442.768 98.0044Z" fill="white"/>
<path d="M396.468 129.252C396.338 129.268 396.206 129.268 396.076 129.252C395.853 129.191 395.647 129.079 395.475 128.925C395.302 128.771 395.168 128.579 395.083 128.364L390.685 117.317C390.543 116.951 390.551 116.544 390.707 116.184C390.864 115.823 391.156 115.539 391.52 115.393C391.701 115.32 391.894 115.283 392.089 115.284C392.283 115.286 392.476 115.326 392.655 115.403C392.834 115.48 392.996 115.591 393.131 115.731C393.267 115.871 393.373 116.036 393.444 116.218L397.102 125.404L418.148 108.691C418.301 108.565 418.478 108.47 418.668 108.413C418.858 108.356 419.057 108.338 419.255 108.36C419.452 108.381 419.643 108.443 419.816 108.539C419.989 108.636 420.141 108.767 420.262 108.924C420.386 109.078 420.479 109.255 420.534 109.445C420.589 109.634 420.607 109.833 420.585 110.029C420.563 110.226 420.503 110.416 420.408 110.589C420.313 110.762 420.184 110.915 420.03 111.038L397.419 129.008C397.139 129.196 396.803 129.282 396.468 129.252Z" fill="#903DE2"/>
<path d="M371.89 105.436C371.632 105.435 371.377 105.37 371.15 105.246L308.889 69.3049C308.548 69.1072 308.3 68.7824 308.199 68.4018C308.098 68.0211 308.152 67.6159 308.35 67.2753C308.547 66.9347 308.872 66.6865 309.253 66.5854C309.633 66.4843 310.039 66.5385 310.379 66.7362L372.641 102.677C372.928 102.838 373.153 103.091 373.28 103.395C373.408 103.698 373.43 104.036 373.344 104.354C373.258 104.672 373.068 104.952 372.805 105.15C372.541 105.347 372.22 105.452 371.89 105.446V105.436Z" fill="#903DE2"/>
<path d="M370.463 118.216C370.203 118.216 369.947 118.147 369.723 118.015L307.461 82.0742C307.121 81.8765 306.873 81.5517 306.772 81.171C306.671 80.7904 306.725 80.3852 306.922 80.0446C307.12 79.704 307.445 79.4558 307.826 79.3547C308.206 79.2536 308.611 79.3078 308.952 79.5055L371.214 115.446C371.501 115.608 371.726 115.86 371.853 116.164C371.98 116.468 372.003 116.805 371.917 117.123C371.83 117.441 371.641 117.721 371.378 117.919C371.114 118.117 370.793 118.221 370.463 118.216Z" fill="#903DE2"/>
<path d="M406.393 145.436C405.719 145.435 405.056 145.26 404.469 144.928L385.22 134.283C383.832 133.523 382.694 132.376 381.943 130.982C381.193 129.588 380.862 128.007 380.992 126.429L382.82 104.96C382.882 104.296 383.108 103.659 383.48 103.105C383.851 102.552 384.355 102.1 384.947 101.792C385.538 101.484 386.196 101.329 386.863 101.341C387.529 101.354 388.182 101.533 388.761 101.863L409.004 113.554C409.965 114.115 410.75 114.932 411.271 115.914C411.792 116.897 412.028 118.005 411.954 119.114L410.304 141.746C410.255 142.406 410.04 143.042 409.68 143.596C409.32 144.15 408.826 144.605 408.243 144.918C407.677 145.237 407.043 145.415 406.393 145.436ZM386.827 104.305C386.576 104.304 386.334 104.396 386.148 104.564C385.963 104.733 385.846 104.964 385.823 105.214L383.994 126.683C383.907 127.685 384.112 128.69 384.585 129.578C385.058 130.465 385.778 131.196 386.658 131.683L405.907 142.338C406.056 142.414 406.221 142.454 406.388 142.454C406.555 142.454 406.72 142.414 406.869 142.338C407.016 142.259 407.14 142.143 407.231 142.003C407.321 141.863 407.375 141.702 407.387 141.535L409.036 118.903C409.072 118.35 408.954 117.799 408.695 117.309C408.435 116.82 408.045 116.413 407.567 116.133L387.313 104.442C387.167 104.351 386.999 104.303 386.827 104.305Z" fill="#903DE2"/>
<path d="M367.493 158.332C367.233 158.332 366.978 158.262 366.753 158.131L304.491 122.19C304.151 121.993 303.903 121.668 303.801 121.287C303.7 120.907 303.755 120.501 303.952 120.161C304.15 119.82 304.475 119.572 304.855 119.471C305.236 119.37 305.641 119.424 305.982 119.622L368.244 155.562C368.531 155.724 368.756 155.976 368.883 156.28C369.01 156.584 369.033 156.921 368.946 157.239C368.86 157.557 368.671 157.837 368.407 158.035C368.144 158.233 367.822 158.337 367.493 158.332Z" fill="#903DE2"/>
<path d="M366.066 171.101C365.806 171.101 365.551 171.032 365.326 170.901L303.064 134.96C302.896 134.862 302.748 134.732 302.629 134.577C302.511 134.422 302.424 134.245 302.374 134.057C302.324 133.868 302.312 133.672 302.338 133.479C302.364 133.285 302.427 133.099 302.525 132.93C302.623 132.762 302.753 132.614 302.908 132.496C303.063 132.377 303.24 132.29 303.428 132.24C303.617 132.19 303.813 132.178 304.006 132.204C304.2 132.23 304.386 132.293 304.555 132.391L366.817 168.332C367.104 168.493 367.329 168.746 367.456 169.05C367.583 169.353 367.605 169.691 367.519 170.009C367.433 170.327 367.243 170.607 366.98 170.805C366.717 171.002 366.395 171.107 366.066 171.101Z" fill="#903DE2"/>
<path d="M401.996 198.321C401.323 198.318 400.662 198.147 400.072 197.824L380.823 187.169C379.434 186.409 378.295 185.263 377.544 183.869C376.794 182.475 376.464 180.893 376.594 179.315L378.497 157.888C378.556 157.223 378.781 156.583 379.152 156.028C379.522 155.473 380.027 155.02 380.619 154.712C381.211 154.403 381.871 154.249 382.539 154.262C383.206 154.276 383.859 154.458 384.438 154.791L404.681 166.482C405.641 167.04 406.427 167.855 406.948 168.836C407.469 169.816 407.705 170.923 407.63 172.032L405.981 194.642C405.907 195.641 405.458 196.574 404.725 197.256C403.992 197.938 403.029 198.318 402.028 198.321H401.996ZM382.43 157.19C382.268 157.193 382.108 157.233 381.964 157.306C381.813 157.382 381.684 157.496 381.589 157.637C381.495 157.778 381.438 157.941 381.425 158.11L379.554 179.568C379.467 180.57 379.673 181.576 380.146 182.463C380.618 183.35 381.338 184.082 382.218 184.568L401.467 195.224C401.614 195.308 401.78 195.353 401.948 195.353C402.117 195.353 402.283 195.308 402.429 195.224C402.579 195.147 402.706 195.033 402.797 194.892C402.888 194.751 402.94 194.588 402.947 194.42L404.596 171.788C404.633 171.236 404.515 170.684 404.255 170.195C403.996 169.706 403.605 169.298 403.127 169.019L382.874 157.328C382.74 157.244 382.587 157.196 382.43 157.19Z" fill="#903DE2"/>
<path d="M392.63 181.651C392.5 181.666 392.369 181.666 392.239 181.651C392.016 181.59 391.81 181.478 391.637 181.324C391.465 181.17 391.331 180.978 391.245 180.763L386.848 169.727C386.734 169.367 386.762 168.978 386.926 168.638C387.09 168.298 387.377 168.034 387.73 167.899C388.082 167.764 388.472 167.769 388.821 167.912C389.17 168.055 389.451 168.326 389.607 168.67L393.296 177.761L414.311 161.059C414.622 160.85 415 160.765 415.371 160.822C415.741 160.879 416.076 161.074 416.31 161.367C416.543 161.661 416.657 162.031 416.63 162.405C416.602 162.779 416.435 163.129 416.161 163.384L393.55 181.355C393.285 181.554 392.961 181.658 392.63 181.651Z" fill="#903DE2"/>
<path d="M363.106 211.217C362.846 211.218 362.59 211.149 362.366 211.017L300.094 175.076C299.767 174.871 299.532 174.547 299.44 174.172C299.347 173.798 299.403 173.402 299.596 173.068C299.789 172.734 300.104 172.488 300.475 172.381C300.846 172.275 301.243 172.316 301.584 172.497L363.846 208.437C364.132 208.598 364.357 208.85 364.484 209.153C364.612 209.455 364.635 209.792 364.55 210.109C364.465 210.426 364.277 210.706 364.016 210.905C363.755 211.104 363.434 211.21 363.106 211.207V211.217Z" fill="#903DE2"/>
<path d="M361.679 223.997C361.416 223.997 361.157 223.928 360.928 223.797L298.667 187.856C298.498 187.758 298.35 187.628 298.232 187.473C298.113 187.318 298.027 187.141 297.977 186.953C297.927 186.764 297.914 186.568 297.94 186.375C297.966 186.181 298.03 185.995 298.128 185.826C298.225 185.658 298.356 185.51 298.51 185.392C298.665 185.273 298.842 185.187 299.031 185.136C299.219 185.086 299.416 185.074 299.609 185.1C299.802 185.126 299.988 185.189 300.157 185.287L362.419 221.228C362.702 221.392 362.923 221.645 363.049 221.947C363.174 222.249 363.196 222.585 363.112 222.901C363.028 223.217 362.842 223.497 362.583 223.697C362.324 223.897 362.006 224.006 361.679 224.008V223.997Z" fill="#903DE2"/>
<path d="M397.599 251.207C396.928 251.21 396.269 251.039 395.685 250.71L376.383 240.055C374.995 239.294 373.857 238.147 373.106 236.753C372.356 235.36 372.025 233.778 372.155 232.2L373.994 210.742C374.049 210.077 374.271 209.438 374.641 208.883C375.011 208.328 375.516 207.877 376.108 207.571C376.7 207.263 377.36 207.11 378.027 207.125C378.694 207.14 379.346 207.322 379.924 207.655L400.167 219.346C401.127 219.907 401.91 220.725 402.429 221.707C402.949 222.69 403.183 223.798 403.106 224.907L401.457 247.539C401.406 248.197 401.19 248.833 400.83 249.387C400.47 249.941 399.977 250.396 399.396 250.71C398.844 251.014 398.228 251.184 397.599 251.207ZM378.032 210.086C377.871 210.086 377.712 210.122 377.567 210.192C377.42 210.273 377.294 210.389 377.2 210.528C377.106 210.668 377.047 210.828 377.028 210.995L375.199 232.454C375.111 233.456 375.316 234.462 375.789 235.35C376.262 236.237 376.982 236.968 377.863 237.454L397.123 248.109C397.268 248.192 397.432 248.237 397.599 248.239C397.766 248.241 397.931 248.201 398.078 248.121C398.225 248.042 398.349 247.926 398.439 247.786C398.529 247.645 398.582 247.483 398.592 247.317L400.241 224.674C400.28 224.121 400.163 223.568 399.903 223.079C399.644 222.589 399.252 222.182 398.772 221.904L378.497 210.213C378.354 210.136 378.195 210.092 378.032 210.086Z" fill="#903DE2"/>
<path d="M396.563 89.0191C395.451 89.0235 394.357 88.7355 393.391 88.184L366.869 73.2052C366.576 73.0398 366.348 72.7785 366.225 72.4653C364.943 69.1571 362.654 66.3355 359.681 64.3998C358.624 63.7655 355.855 62.5076 354.396 64.6323C354.181 64.93 353.864 65.1385 353.506 65.2183C353.147 65.2982 352.772 65.2439 352.451 65.0657L329.597 52.2328C328.313 51.4913 327.246 50.4251 326.504 49.1412C325.762 47.8573 325.37 46.4008 325.369 44.9178V28.66C325.37 26.8959 325.876 25.169 326.828 23.6836C327.779 22.1981 329.136 21.0161 330.738 20.2774C330.954 20.1777 331.191 20.1314 331.428 20.1425C331.665 20.1535 331.897 20.2215 332.102 20.3408L405.527 63.0044C405.765 63.1409 405.961 63.3411 406.092 63.5826C406.223 63.824 406.284 64.0972 406.269 64.3715C406.254 64.6458 406.162 64.9104 406.005 65.1357C405.848 65.361 405.631 65.5381 405.379 65.6471C404.681 65.9533 404.087 66.4563 403.67 67.0946C403.253 67.7329 403.031 68.4788 403.032 69.2412V82.5815C403.042 83.7045 402.754 84.81 402.197 85.785C401.639 86.7601 400.833 87.5697 399.861 88.1311C398.861 88.7187 397.722 89.0255 396.563 89.0191ZM368.73 70.8691L394.861 85.5942C395.387 85.8918 395.982 86.0462 396.587 86.0421C397.191 86.0379 397.784 85.8753 398.306 85.5704C398.828 85.2655 399.261 84.8291 399.562 84.3046C399.862 83.7802 400.02 83.186 400.019 82.5815V69.2412C400.018 67.4338 400.728 65.6986 401.996 64.4103L331.278 23.3218C330.379 23.8835 329.635 24.6615 329.114 25.5848C328.593 26.5081 328.312 27.5472 328.297 28.6071V44.9178C328.297 45.8791 328.553 46.8229 329.038 47.653C329.523 48.4832 330.219 49.1698 331.056 49.643L352.8 61.8945C354.861 60.0763 357.979 60.0129 361.129 61.8311C364.536 63.9854 367.192 67.143 368.73 70.8691Z" fill="#903DE2"/>
<path d="M213.71 258.691L201.025 336.259C200.932 336.826 200.641 337.341 200.203 337.713C199.766 338.084 199.21 338.288 198.636 338.288C198.296 338.289 197.959 338.218 197.648 338.079C197.337 337.941 197.058 337.738 196.831 337.485C196.603 337.231 196.432 336.933 196.328 336.609C196.223 336.284 196.189 335.942 196.226 335.603L205.148 255.583L213.71 258.691Z" fill="#263238"/>
<path d="M169.831 232.602L157.146 310.17C157.055 310.736 156.766 311.251 156.33 311.623C155.894 311.995 155.34 312.199 154.767 312.2C154.427 312.2 154.09 312.129 153.779 311.99C153.468 311.852 153.189 311.649 152.962 311.396C152.735 311.143 152.563 310.844 152.459 310.52C152.355 310.196 152.32 309.853 152.357 309.515L161.279 229.483L169.831 232.602Z" fill="#263238"/>
<path d="M233.223 240.551L245.771 307.401C245.887 307.908 246.193 308.352 246.625 308.642C247.058 308.931 247.585 309.044 248.099 308.958C248.612 308.871 249.073 308.592 249.387 308.176C249.701 307.761 249.844 307.242 249.788 306.724L240.528 244.769L233.223 240.551Z" fill="#263238"/>
<path d="M188.847 215.615L201.321 282.052C201.408 282.52 201.656 282.943 202.024 283.247C202.391 283.55 202.853 283.715 203.329 283.712C203.622 283.71 203.91 283.646 204.176 283.523C204.442 283.401 204.678 283.223 204.869 283.002C205.06 282.781 205.202 282.521 205.285 282.241C205.367 281.96 205.389 281.665 205.348 281.376L196.152 219.822L188.847 215.615Z" fill="#263238"/>
<path d="M192.452 210.562C195.341 209.295 197.841 207.283 199.699 204.733C201.556 202.184 202.703 199.186 203.023 196.048C205.042 175.699 212.209 133.755 236.511 147.719C266.49 164.949 255.76 215.002 251.395 231.048C250.419 234.663 248.521 237.963 245.887 240.625C240.464 246.09 229.249 255.488 210.179 263.479C207.835 264.466 205.225 264.622 202.78 263.923C193.266 261.227 168.551 252.929 156.205 237.147C155.504 236.252 155.186 235.115 155.321 233.986C155.456 232.857 156.032 231.827 156.924 231.122C161.881 227.147 173.171 219.198 192.452 210.562Z" fill="#903DE2"/>
<path opacity="0.5" d="M192.452 210.562C195.341 209.295 197.841 207.283 199.699 204.733C201.556 202.184 202.703 199.186 203.023 196.048C205.042 175.699 212.209 133.755 236.511 147.719C266.49 164.949 255.76 215.002 251.395 231.048C250.419 234.663 248.521 237.963 245.887 240.625C240.464 246.09 229.249 255.488 210.179 263.479C207.835 264.466 205.225 264.622 202.78 263.923C193.266 261.227 168.551 252.929 156.205 237.147C155.504 236.252 155.186 235.115 155.321 233.986C155.456 232.857 156.032 231.827 156.924 231.122C161.881 227.147 173.171 219.198 192.452 210.562Z" fill="black"/>
<path d="M155.275 234.283C155.211 235.314 155.526 236.333 156.163 237.147C156.828 237.993 157.526 238.807 158.277 239.61C158.668 240.044 159.08 240.477 159.492 240.9C159.905 241.323 160.327 241.735 160.75 242.137L162.05 243.342C162.494 243.743 162.949 244.135 163.404 244.526C170.401 250.403 178.9 254.875 186.49 258.109L187.896 258.691L188.044 258.754L189.334 259.272L189.566 259.367L190.771 259.843L191.046 259.948L192.177 260.371L192.494 260.488C192.854 260.625 193.192 260.752 193.551 260.868L193.921 261.006L194.883 261.344L195.285 261.481L196.173 261.788L196.596 261.936L197.399 262.2L197.854 262.348L198.583 262.581L199.069 262.739L199.693 262.929L200.222 263.099L200.739 263.257L201.384 263.447L201.712 263.543L202.621 263.807C205.066 264.506 207.677 264.349 210.021 263.363C229.048 255.371 240.306 245.974 245.729 240.509C248.363 237.847 250.26 234.547 251.236 230.932C255.602 214.885 266.331 164.833 236.352 147.602C235.813 147.296 235.295 147.021 234.777 146.778C234.668 146.715 234.555 146.659 234.439 146.609C233.932 146.366 233.435 146.154 232.949 145.964L232.801 145.911C232.325 145.731 231.87 145.583 231.405 145.446L231.194 145.382C230.708 145.245 230.221 145.139 229.746 145.044H229.619C228.671 144.871 227.707 144.8 226.744 144.833C225.824 144.864 224.912 145.006 224.027 145.256C228.815 143.141 234.661 143.237 240.454 146.566C270.443 163.797 259.703 213.839 255.348 229.896L254.608 232.644C253.158 238.247 249.885 243.207 245.306 246.746L237.526 252.697C229.112 259.047 219.913 264.284 210.158 268.278C207.814 269.263 205.205 269.424 202.758 268.733C193.245 266.037 168.52 257.75 156.173 241.957C155.647 241.283 155.337 240.464 155.285 239.61V234.325L155.275 234.283Z" fill="#903DE2"/>
<path opacity="0.6" d="M155.275 234.283C155.211 235.314 155.526 236.333 156.163 237.147C156.828 237.993 157.526 238.807 158.277 239.61C158.668 240.044 159.08 240.477 159.492 240.9C159.905 241.323 160.327 241.735 160.75 242.137L162.05 243.342C162.494 243.743 162.949 244.135 163.404 244.526C170.401 250.403 178.9 254.875 186.49 258.109L187.896 258.691L188.044 258.754L189.334 259.272L189.566 259.367L190.771 259.843L191.046 259.948L192.177 260.371L192.494 260.488C192.854 260.625 193.192 260.752 193.551 260.868L193.921 261.006L194.883 261.344L195.285 261.481L196.173 261.788L196.596 261.936L197.399 262.2L197.854 262.348L198.583 262.581L199.069 262.739L199.693 262.929L200.222 263.099L200.739 263.257L201.384 263.447L201.712 263.543L202.621 263.807C205.066 264.506 207.677 264.349 210.021 263.363C229.048 255.371 240.306 245.974 245.729 240.509C248.363 237.847 250.26 234.547 251.236 230.932C255.602 214.885 266.331 164.833 236.352 147.602C235.813 147.296 235.295 147.021 234.777 146.778C234.668 146.715 234.555 146.659 234.439 146.609C233.932 146.366 233.435 146.154 232.949 145.964L232.801 145.911C232.325 145.731 231.87 145.583 231.405 145.446L231.194 145.382C230.708 145.245 230.221 145.139 229.746 145.044H229.619C228.671 144.871 227.707 144.8 226.744 144.833C225.824 144.864 224.912 145.006 224.027 145.256C228.815 143.141 234.661 143.237 240.454 146.566C270.443 163.797 259.703 213.839 255.348 229.896L254.608 232.644C253.158 238.247 249.885 243.207 245.306 246.746L237.526 252.697C229.112 259.047 219.913 264.284 210.158 268.278C207.814 269.263 205.205 269.424 202.758 268.733C193.245 266.037 168.52 257.75 156.173 241.957C155.647 241.283 155.337 240.464 155.285 239.61V234.325L155.275 234.283Z" fill="black"/>
<path d="M194.693 412.813C195.466 413.204 196.321 413.407 197.188 413.407C198.054 413.407 198.909 413.204 199.682 412.813C201.067 412.02 201.067 410.698 199.682 409.937C198.91 409.541 198.055 409.335 197.188 409.335C196.32 409.335 195.465 409.541 194.693 409.937C193.319 410.73 193.319 412.02 194.693 412.813Z" fill="#37474F"/>
<path d="M193.647 411.29H200.708V326.344H193.647V411.29Z" fill="#37474F"/>
<path d="M274.904 365.699C275.677 366.09 276.532 366.294 277.399 366.294C278.265 366.294 279.12 366.09 279.893 365.699C281.278 364.895 281.278 363.585 279.893 362.813C279.12 362.422 278.265 362.218 277.399 362.218C276.532 362.218 275.677 362.422 274.904 362.813C273.561 363.606 273.561 364.895 274.904 365.699Z" fill="#263238"/>
<path d="M273.9 364.177H280.961V279.23H273.9V364.177Z" fill="#263238"/>
<path d="M63.1502 336.597C63.9221 336.993 64.7773 337.2 65.6449 337.2C66.5125 337.2 67.3676 336.993 68.1396 336.597C69.5244 335.805 69.5244 334.483 68.1396 333.722C67.3661 333.331 66.5116 333.127 65.6449 333.127C64.7782 333.127 63.9236 333.331 63.1502 333.722C61.776 334.515 61.776 335.805 63.1502 336.597Z" fill="#37474F"/>
<path d="M62.1036 335.086H69.1648L69.1648 250.139H62.1036L62.1036 335.086Z" fill="#37474F"/>
<path d="M149.418 272.316C150.11 272.671 150.876 272.856 151.654 272.856C152.431 272.856 153.198 272.671 153.89 272.316C154.158 272.224 154.391 272.05 154.556 271.819C154.721 271.588 154.81 271.311 154.81 271.027C154.81 270.743 154.721 270.466 154.556 270.235C154.391 270.003 154.158 269.829 153.89 269.737C153.198 269.383 152.431 269.198 151.654 269.198C150.876 269.198 150.11 269.383 149.418 269.737C149.149 269.829 148.916 270.003 148.751 270.235C148.586 270.466 148.498 270.743 148.498 271.027C148.498 271.311 148.586 271.588 148.751 271.819C148.916 272.05 149.149 272.224 149.418 272.316Z" fill="#455A64"/>
<path d="M148.477 270.963H154.809V200.076H148.477V270.963Z" fill="#455A64"/>
<path d="M280.961 265.16V282.063L197.177 330.434V313.532L280.961 265.16Z" fill="#263238"/>
<path d="M62.1142 235.551L197.177 313.532V330.435L62.1142 252.454V235.551Z" fill="#37474F"/>
<path d="M145.898 187.179L280.961 265.16L197.177 313.532L62.1142 235.551L145.898 187.179Z" fill="#455A64"/>
<path opacity="0.2" d="M146.321 270.773L84.1965 234.906C84.0472 234.82 83.9233 234.696 83.8372 234.547C83.751 234.397 83.7057 234.228 83.7057 234.056C83.7057 233.883 83.751 233.714 83.8372 233.564C83.9233 233.415 84.0472 233.291 84.1965 233.205L96.152 226.302C96.3036 226.222 96.4723 226.181 96.6436 226.181C96.8148 226.181 96.9835 226.222 97.1351 226.302L159.26 262.169C159.406 262.256 159.528 262.379 159.612 262.528C159.697 262.676 159.741 262.844 159.741 263.014C159.741 263.185 159.697 263.353 159.612 263.501C159.528 263.649 159.406 263.773 159.26 263.86L147.293 270.773C147.145 270.856 146.977 270.9 146.807 270.9C146.637 270.9 146.469 270.856 146.321 270.773Z" fill="black"/>
<path d="M205.803 299.008L169.566 277.866C169.485 277.819 169.418 277.751 169.371 277.669C169.324 277.587 169.299 277.495 169.299 277.401C169.299 277.307 169.324 277.215 169.371 277.133C169.418 277.051 169.485 276.983 169.566 276.936L209.735 252.179L205.803 299.008Z" fill="#903DE2"/>
<path opacity="0.4" d="M205.803 299.008L169.566 277.866C169.485 277.819 169.418 277.751 169.371 277.669C169.324 277.587 169.299 277.495 169.299 277.401C169.299 277.307 169.324 277.215 169.371 277.133C169.418 277.051 169.485 276.983 169.566 276.936L209.735 252.179L205.803 299.008Z" fill="black"/>
<path d="M205.803 299.008L246.204 275.615V264.98L205.803 288.278V299.008Z" fill="#903DE2"/>
<path opacity="0.2" d="M205.803 299.008L246.204 275.615V264.98L205.803 288.278V299.008Z" fill="black"/>
<path d="M238.319 277.253L222.367 286.46C221.31 287.073 220.443 286.46 220.443 285.012C220.456 284.293 220.636 283.586 220.97 282.95C221.304 282.313 221.783 281.763 222.367 281.344L238.319 272.126C239.376 271.513 240.243 272.126 240.243 273.585C240.233 274.305 240.054 275.012 239.719 275.649C239.385 276.286 238.905 276.836 238.319 277.253Z" fill="#E6E6E6"/>
<path d="M218.107 286.365C218.067 287.135 217.845 287.884 217.459 288.551C217.073 289.218 216.534 289.784 215.887 290.202C214.661 290.911 213.668 290.34 213.668 288.923C213.709 288.154 213.932 287.406 214.318 286.739C214.704 286.072 215.241 285.506 215.887 285.086C217.114 284.378 218.107 284.949 218.107 286.365Z" fill="#E6E6E6"/>
<path d="M205.803 288.278L169.714 271.312C169.625 271.269 169.549 271.204 169.495 271.122C169.44 271.04 169.408 270.945 169.403 270.847C169.398 270.748 169.419 270.651 169.464 270.563C169.509 270.476 169.578 270.402 169.661 270.35L208.382 247.327C208.599 247.197 208.846 247.124 209.099 247.114C209.352 247.105 209.604 247.16 209.83 247.274L246.204 264.98L205.803 288.278Z" fill="#903DE2"/>
<path d="M172.039 272.401V276.968L201.934 293.881V286.46L172.039 272.401Z" fill="#F5F5F5"/>
<path d="M201.934 293.881L205.803 291.46V288.278L201.934 286.46V293.881Z" fill="#E0E0E0"/>
<path d="M169.397 266.915V255.139H235.284C235.506 255.139 242.578 258.828 245.707 260.424C245.848 260.502 245.966 260.616 246.048 260.754C246.13 260.893 246.173 261.051 246.173 261.212C246.173 261.373 246.13 261.531 246.048 261.669C245.966 261.808 245.848 261.922 245.707 261.999L206.69 284.103C206.415 284.254 206.107 284.338 205.793 284.347C205.479 284.356 205.167 284.29 204.883 284.156L169.397 266.915Z" fill="#903DE2"/>
<path opacity="0.4" d="M169.397 266.915V255.139H235.284C235.506 255.139 242.578 258.828 245.707 260.424C245.848 260.502 245.966 260.616 246.048 260.754C246.13 260.893 246.173 261.051 246.173 261.212C246.173 261.373 246.13 261.531 246.048 261.669C245.966 261.808 245.848 261.922 245.707 261.999L206.69 284.103C206.415 284.254 206.107 284.338 205.793 284.347C205.479 284.356 205.167 284.29 204.883 284.156L169.397 266.915Z" fill="black"/>
<path d="M205.803 281.312L243.181 260.298V255.731L205.803 275.615V281.312Z" fill="#E0E0E0"/>
<path d="M169.397 266.915L179.175 261.196L169.397 255.118V266.915Z" fill="#903DE2"/>
<path opacity="0.6" d="M169.397 266.915L179.175 261.196L169.397 255.118V266.915Z" fill="black"/>
<path d="M175.57 258.955V265.467L205.802 281.312V275.615L175.57 258.955Z" fill="#F5F5F5"/>
<path d="M169.397 255.139L204.545 276.09C204.929 276.32 205.366 276.448 205.814 276.461C206.262 276.473 206.706 276.371 207.103 276.164L245.845 255.868C245.982 255.794 246.097 255.686 246.18 255.554C246.262 255.422 246.309 255.27 246.315 255.115C246.322 254.959 246.288 254.804 246.216 254.666C246.145 254.527 246.039 254.41 245.908 254.325L210.538 231.333L169.397 255.139Z" fill="#903DE2"/>
<path d="M183.995 230.403V232.835L168.435 241.619V239.188L183.995 230.403Z" fill="#903DE2"/>
<path opacity="0.2" d="M183.995 230.403V232.835L168.435 241.619V239.188L183.995 230.403Z" fill="white"/>
<path d="M132.928 218.67L168.435 239.188V241.619L132.928 221.101V218.67Z" fill="#903DE2"/>
<path opacity="0.4" d="M132.928 218.67L168.435 239.188V241.619L132.928 221.101V218.67Z" fill="white"/>
<path d="M148.488 209.885L183.995 230.403L168.435 239.188L132.928 218.67L148.488 209.885Z" fill="#903DE2"/>
<path opacity="0.6" d="M148.488 209.885L183.995 230.403L168.435 239.188L132.928 218.67L148.488 209.885Z" fill="white"/>
<path d="M155.507 253.257L157.093 254.177V257.073C158.116 257.079 159.121 256.805 160 256.281L160.116 256.207C160.48 255.988 160.797 255.699 161.048 255.356C161.299 255.013 161.478 254.622 161.575 254.209C161.631 254.031 161.659 253.846 161.659 253.659V249.706L155.507 253.257Z" fill="#E0E0E0"/>
<path d="M86.427 146.461L86.5538 146.387C87.4345 145.867 88.4384 145.594 89.4608 145.594C89.784 145.588 90.1024 145.672 90.3805 145.837L158.89 185.224C159.731 185.711 160.43 186.411 160.916 187.253C161.402 188.095 161.658 189.051 161.659 190.023V249.706L155.507 253.257L90.4333 215.847C89.5917 215.36 88.8928 214.66 88.4067 213.818C87.9207 212.976 87.6645 212.021 87.6638 211.048V149.167H84.8942C84.8958 148.622 85.0376 148.087 85.3061 147.613C85.5746 147.139 85.9606 146.742 86.427 146.461Z" fill="#E6E6E6"/>
<path d="M161.067 187.539C161.455 188.31 161.657 189.16 161.659 190.023V249.706L155.507 253.257L153.202 251.968V192.454L161.067 187.539Z" fill="#E0E0E0"/>
<path d="M158.89 251.302V255.266C158.888 255.584 158.803 255.896 158.642 256.171C158.482 256.446 158.252 256.675 157.976 256.833C157.7 256.991 157.387 257.074 157.069 257.074C156.751 257.074 156.438 256.99 156.162 256.83L87.6638 217.444C86.8221 216.957 86.1233 216.257 85.6372 215.415C85.1511 214.572 84.8949 213.617 84.8942 212.645V208.628L158.89 251.302Z" fill="#F0F0F0"/>
<path d="M84.8942 149.008C84.8941 148.689 84.9781 148.376 85.1376 148.099C85.2972 147.823 85.5267 147.593 85.8031 147.433C86.0795 147.274 86.3931 147.19 86.7123 147.19C87.0315 147.19 87.3451 147.274 87.6215 147.433L156.12 186.831C156.963 187.316 157.663 188.015 158.149 188.858C158.636 189.701 158.891 190.657 158.89 191.63V251.302L84.8942 208.585" fill="#F0F0F0"/>
<path d="M124.334 218.659L111.279 212.063L114.471 209.885L127.04 216.492L124.334 218.659Z" fill="#E0E0E0"/>
<path d="M111.279 212.052L103.731 242.052C103.615 242.517 103.656 243.008 103.847 243.447C104.038 243.887 104.369 244.251 104.788 244.484L120.391 253.257C120.391 253.257 125.243 219.114 124.344 218.659L111.279 212.052Z" fill="#E6E6E6"/>
<path d="M128.604 246.545L123.234 243.289L122.198 250.572L128.604 246.545Z" fill="#F0F0F0"/>
<path d="M124.334 218.659L119.513 251.619C119.468 251.919 119.511 252.226 119.638 252.502C119.764 252.778 119.969 253.01 120.227 253.171C120.484 253.332 120.783 253.414 121.086 253.407C121.39 253.399 121.685 253.303 121.934 253.131L128.129 248.902C128.353 248.753 128.537 248.55 128.664 248.312C128.792 248.074 128.858 247.808 128.858 247.539V246.904C128.858 246.817 128.835 246.731 128.79 246.656C128.745 246.581 128.68 246.52 128.602 246.48C128.525 246.439 128.437 246.421 128.35 246.427C128.263 246.433 128.179 246.463 128.107 246.513L122.23 250.541L127.071 216.471L124.334 218.659Z" fill="#E0E0E0"/>
<path d="M123.995 201.862C123.995 204.748 121.966 205.921 119.46 204.473C118.144 203.612 117.049 202.453 116.263 201.091C115.477 199.728 115.023 198.2 114.936 196.63C114.936 193.744 116.966 192.57 119.46 194.019C120.78 194.877 121.878 196.035 122.666 197.398C123.454 198.761 123.909 200.29 123.995 201.862Z" fill="#E0E0E0"/>
<path d="M72.9384 365.519L114.45 341.745L81.4902 323.574L41.4269 347.158L72.9384 365.519Z" fill="white"/>
<path d="M74.3761 361.555C74.3094 361.552 74.2443 361.534 74.1858 361.502L50.0844 347.454C50.0362 347.433 49.9929 347.402 49.9574 347.364C49.9219 347.325 49.8951 347.279 49.8786 347.23C49.8621 347.18 49.8564 347.127 49.8619 347.075C49.8674 347.023 49.8839 346.972 49.9103 346.927C49.9367 346.882 49.9725 346.842 50.0152 346.812C50.0579 346.782 50.1066 346.761 50.1581 346.75C50.2095 346.74 50.2625 346.741 50.3136 346.753C50.3647 346.765 50.4127 346.788 50.4544 346.819L74.5558 360.847C74.5983 360.871 74.6356 360.903 74.6655 360.942C74.6955 360.98 74.7175 361.025 74.7302 361.072C74.743 361.119 74.7463 361.168 74.74 361.217C74.7336 361.265 74.7177 361.312 74.6932 361.354C74.663 361.413 74.6177 361.462 74.562 361.498C74.5062 361.533 74.442 361.553 74.3761 361.555Z" fill="#E0E0E0"/>
<path d="M78.2873 359.155C78.2284 359.17 78.1666 359.17 78.1076 359.155L54.038 345.054C53.9967 345.03 53.9606 344.998 53.9319 344.96C53.9031 344.922 53.8822 344.878 53.8704 344.832C53.8586 344.786 53.8561 344.738 53.8631 344.69C53.8701 344.643 53.8864 344.598 53.9111 344.557C53.9342 344.515 53.9655 344.478 54.0032 344.448C54.0409 344.418 54.0842 344.396 54.1305 344.383C54.1768 344.371 54.2252 344.367 54.2729 344.373C54.3206 344.38 54.3665 344.395 54.408 344.42L78.5199 358.468C78.604 358.519 78.6645 358.6 78.6883 358.696C78.7121 358.791 78.6971 358.891 78.6467 358.976C78.6115 359.038 78.5585 359.088 78.4945 359.12C78.4304 359.152 78.3583 359.165 78.2873 359.155Z" fill="#E0E0E0"/>
<path d="M82.1773 356.862C82.1185 356.877 82.0565 356.877 81.9976 356.862L57.8857 342.771C57.8016 342.72 57.741 342.638 57.7173 342.543C57.6935 342.448 57.7084 342.347 57.7589 342.263C57.7819 342.221 57.8133 342.184 57.8509 342.154C57.8886 342.124 57.9319 342.102 57.9782 342.09C58.0245 342.077 58.073 342.073 58.1206 342.08C58.1683 342.086 58.2142 342.102 58.2557 342.126L82.3676 356.185C82.4403 356.223 82.4976 356.286 82.5301 356.361C82.5625 356.437 82.568 356.521 82.5458 356.6C82.5235 356.679 82.4748 356.748 82.4078 356.796C82.3407 356.844 82.2594 356.867 82.1773 356.862Z" fill="#E0E0E0"/>
<path d="M86.1413 354.504C86.0746 354.501 86.0095 354.483 85.951 354.451L61.8496 340.403C61.7659 340.352 61.7048 340.271 61.6792 340.177C61.6537 340.082 61.6655 339.981 61.7122 339.895C61.7362 339.853 61.7686 339.815 61.8075 339.786C61.8464 339.756 61.891 339.734 61.9386 339.722C61.9861 339.711 62.0355 339.708 62.0838 339.716C62.1322 339.724 62.1784 339.742 62.2196 339.768L86.321 353.817C86.3631 353.84 86.4002 353.871 86.43 353.909C86.4599 353.947 86.4819 353.99 86.4947 354.036C86.5075 354.083 86.5109 354.131 86.5046 354.179C86.4984 354.226 86.4827 354.272 86.4584 354.314C86.4269 354.371 86.381 354.418 86.3253 354.451C86.2697 354.485 86.2062 354.503 86.1413 354.504Z" fill="#E0E0E0"/>
<path d="M90.0947 352.073C90.0312 352.071 89.9692 352.053 89.915 352.02L65.8031 337.971C65.719 337.921 65.6584 337.839 65.6346 337.744C65.6109 337.649 65.6258 337.548 65.6762 337.464C65.6991 337.422 65.7306 337.384 65.7685 337.355C65.8065 337.325 65.8502 337.304 65.8969 337.292C65.9436 337.28 65.9922 337.278 66.0397 337.286C66.0873 337.293 66.1327 337.311 66.1731 337.337L90.285 351.386C90.3263 351.41 90.3623 351.442 90.3911 351.48C90.4199 351.518 90.4408 351.561 90.4526 351.608C90.4644 351.654 90.4669 351.702 90.4599 351.749C90.4529 351.796 90.4366 351.842 90.4118 351.883C90.3803 351.939 90.3344 351.987 90.2788 352.02C90.2231 352.054 90.1596 352.072 90.0947 352.073Z" fill="#E0E0E0"/>
<path d="M94.059 349.673C93.9923 349.671 93.9272 349.653 93.8687 349.621L69.7673 335.572C69.7191 335.551 69.6758 335.521 69.6403 335.482C69.6049 335.443 69.578 335.398 69.5615 335.348C69.5451 335.298 69.5394 335.245 69.5448 335.193C69.5503 335.141 69.5668 335.091 69.5932 335.045C69.6196 335 69.6554 334.961 69.6981 334.93C69.7408 334.9 69.7895 334.879 69.841 334.869C69.8924 334.859 69.9455 334.86 69.9966 334.871C70.0477 334.883 70.0956 334.906 70.1373 334.938L94.2387 348.986C94.2808 349.009 94.3179 349.041 94.3477 349.078C94.3776 349.116 94.3996 349.159 94.4124 349.206C94.4252 349.252 94.4286 349.3 94.4223 349.348C94.4161 349.396 94.4004 349.442 94.3761 349.483C94.3438 349.539 94.2977 349.586 94.2422 349.619C94.1867 349.653 94.1236 349.671 94.059 349.673Z" fill="#E0E0E0"/>
<path d="M98.0124 347.274C97.9488 347.272 97.8868 347.254 97.8327 347.221L73.7207 333.172C73.6367 333.122 73.5761 333.04 73.5523 332.945C73.5285 332.85 73.5435 332.749 73.5939 332.665C73.6179 332.624 73.6498 332.588 73.6879 332.559C73.726 332.53 73.7694 332.509 73.8157 332.497C73.8619 332.485 73.9101 332.483 73.9573 332.49C74.0045 332.497 74.0499 332.513 74.0907 332.538L98.2026 346.587C98.2439 346.611 98.28 346.643 98.3088 346.681C98.3375 346.719 98.3584 346.762 98.3702 346.808C98.3821 346.855 98.3845 346.903 98.3775 346.95C98.3705 346.997 98.3542 347.043 98.3295 347.083C98.2998 347.142 98.2543 347.19 98.1982 347.224C98.1421 347.258 98.0777 347.275 98.0124 347.274Z" fill="#E0E0E0"/>
<path d="M101.976 344.874C101.91 344.872 101.845 344.853 101.786 344.821L77.6847 330.773C77.6365 330.752 77.5932 330.722 77.5577 330.683C77.5222 330.644 77.4954 330.599 77.4789 330.549C77.4624 330.499 77.4568 330.446 77.4622 330.394C77.4677 330.342 77.4842 330.292 77.5106 330.246C77.537 330.201 77.5728 330.162 77.6155 330.131C77.6582 330.101 77.7069 330.08 77.7584 330.07C77.8098 330.06 77.8629 330.06 77.9139 330.072C77.965 330.084 78.013 330.107 78.0547 330.139L102.156 344.187C102.199 344.211 102.236 344.244 102.266 344.282C102.296 344.321 102.318 344.365 102.331 344.412C102.343 344.459 102.347 344.509 102.34 344.557C102.334 344.606 102.318 344.652 102.293 344.695C102.261 344.749 102.214 344.795 102.159 344.826C102.103 344.858 102.04 344.874 101.976 344.874Z" fill="#E0E0E0"/>
<path d="M105.93 342.475C105.866 342.473 105.804 342.455 105.75 342.422L81.6383 328.373C81.5543 328.323 81.4937 328.241 81.4699 328.146C81.4461 328.051 81.4611 327.95 81.5115 327.866C81.5355 327.825 81.5674 327.788 81.6055 327.76C81.6436 327.731 81.687 327.71 81.7333 327.698C81.7795 327.686 81.8277 327.684 81.8749 327.691C81.9221 327.698 81.9675 327.714 82.0083 327.739L106.12 341.819C106.204 341.87 106.265 341.951 106.289 342.047C106.312 342.142 106.298 342.242 106.247 342.327C106.211 342.376 106.163 342.416 106.108 342.442C106.052 342.468 105.991 342.479 105.93 342.475Z" fill="#E0E0E0"/>
<path d="M41.5539 347.041L73.0548 365.403V393.627L41.5539 376.227V347.041Z" fill="#FAFAFA"/>
<path d="M73.0548 365.403L114.566 341.629V369.525L73.0548 393.627V365.403Z" fill="#E6E6E6"/>
<path d="M66.2789 368.162L73.0547 372.115L87.7164 363.722L73.0547 374.261L66.2789 368.162Z" fill="#E0E0E0"/>
<path d="M66.2789 377.982L73.0547 381.935L81.3422 377.2L73.0547 384.081L66.2789 377.982Z" fill="#E0E0E0"/>
<path d="M76.9976 373.436L82.1773 374.98L86.1413 368.986L76.9976 373.436Z" fill="#E0E0E0"/>
<path d="M76.9976 373.436L92.6318 364.536L84.82 373.436H76.9976Z" fill="white"/>
<path d="M100.401 354.303L104.069 355.403L106.871 351.153L100.401 354.303Z" fill="#E0E0E0"/>
<path d="M100.401 354.303L111.469 348.003L105.93 354.303H100.401Z" fill="white"/>
<path d="M92.4839 375.286L96.1519 376.386L98.9532 372.136L92.4839 375.286Z" fill="#E0E0E0"/>
<path d="M92.4839 375.286L103.551 368.986L98.0124 375.286H92.4839Z" fill="white"/>
<path d="M137.198 430.381L100.962 409.24C100.881 409.192 100.813 409.124 100.767 409.043C100.72 408.961 100.695 408.869 100.695 408.775C100.695 408.681 100.72 408.588 100.767 408.507C100.813 408.425 100.881 408.357 100.962 408.309L141.131 383.553L137.198 430.381Z" fill="#903DE2"/>
<path opacity="0.4" d="M137.198 430.381L100.962 409.24C100.881 409.192 100.813 409.124 100.767 409.043C100.72 408.961 100.695 408.869 100.695 408.775C100.695 408.681 100.72 408.588 100.767 408.507C100.813 408.425 100.881 408.357 100.962 408.309L141.131 383.553L137.198 430.381Z" fill="black"/>
<path d="M137.198 430.381L177.6 406.988V396.354L137.198 419.652V430.381Z" fill="#903DE2"/>
<path opacity="0.2" d="M137.198 430.381L177.6 406.988V396.354L137.198 419.652V430.381Z" fill="black"/>
<path d="M169.714 408.627L153.763 417.844C152.706 418.457 151.839 417.844 151.839 416.386C151.849 415.666 152.028 414.959 152.362 414.321C152.696 413.684 153.176 413.135 153.763 412.718L169.714 403.51C170.771 402.897 171.638 403.51 171.638 404.959C171.626 405.678 171.445 406.384 171.111 407.021C170.777 407.658 170.299 408.208 169.714 408.627Z" fill="#E6E6E6"/>
<path d="M149.492 417.739C149.45 418.509 149.227 419.259 148.842 419.928C148.456 420.596 147.918 421.164 147.272 421.586C146.056 422.295 145.063 421.713 145.063 420.307C145.104 419.538 145.326 418.789 145.71 418.121C146.093 417.452 146.629 416.883 147.272 416.46C148.498 415.751 149.492 416.322 149.492 417.739Z" fill="#E6E6E6"/>
<path d="M137.198 419.652L101.099 402.686C101.013 402.64 100.941 402.571 100.89 402.487C100.84 402.404 100.813 402.308 100.813 402.21C100.813 402.112 100.84 402.016 100.89 401.933C100.941 401.849 101.013 401.78 101.099 401.734L139.809 378.711C140.027 378.579 140.275 378.504 140.53 378.493C140.785 378.482 141.039 378.535 141.268 378.648L177.652 396.354L137.198 419.652Z" fill="#903DE2"/>
<path d="M103.425 403.785V408.341L133.329 425.254V417.834L103.425 403.785Z" fill="#F5F5F5"/>
<path d="M133.329 425.254L137.198 422.844V419.652L133.329 417.834V425.254Z" fill="#E0E0E0"/>
<path d="M100.792 398.288V386.502H166.669C166.902 386.502 173.974 390.181 177.103 391.787C177.244 391.866 177.361 391.981 177.442 392.121C177.524 392.26 177.567 392.419 177.567 392.58C177.567 392.742 177.524 392.9 177.442 393.04C177.361 393.179 177.244 393.294 177.103 393.373L138.065 415.445C137.791 415.601 137.483 415.688 137.168 415.697C136.853 415.706 136.54 415.638 136.257 415.498L100.792 398.288Z" fill="#903DE2"/>
<path opacity="0.4" d="M100.792 398.288V386.502H166.669C166.902 386.502 173.974 390.181 177.103 391.787C177.244 391.866 177.361 391.981 177.442 392.121C177.524 392.26 177.567 392.419 177.567 392.58C177.567 392.742 177.524 392.9 177.442 393.04C177.361 393.179 177.244 393.294 177.103 393.373L138.065 415.445C137.791 415.601 137.483 415.688 137.168 415.697C136.853 415.706 136.54 415.638 136.257 415.498L100.792 398.288Z" fill="black"/>
<path d="M137.198 412.696L174.576 391.671V387.104L137.198 406.988V412.696Z" fill="#E0E0E0"/>
<path d="M100.792 398.288L110.57 392.57L100.792 386.502V398.288Z" fill="#903DE2"/>
<path opacity="0.6" d="M100.792 398.288L110.57 392.57L100.792 386.502V398.288Z" fill="black"/>
<path d="M106.966 390.329V396.84L137.198 412.696V406.988L106.966 390.329Z" fill="#F5F5F5"/>
<path d="M100.792 386.502L135.94 407.443C136.322 407.675 136.758 407.803 137.204 407.816C137.651 407.829 138.093 407.726 138.488 407.517L177.24 387.274C177.374 387.194 177.484 387.081 177.561 386.946C177.638 386.81 177.678 386.658 177.678 386.502C177.678 386.346 177.638 386.194 177.561 386.058C177.484 385.923 177.374 385.81 177.24 385.73L141.881 362.75L100.792 386.502Z" fill="#903DE2"/>
<path d="M137.198 403.785L100.962 382.644C100.881 382.596 100.813 382.528 100.767 382.446C100.72 382.365 100.695 382.272 100.695 382.178C100.695 382.084 100.72 381.992 100.767 381.91C100.813 381.829 100.881 381.761 100.962 381.713L141.131 356.957L137.198 403.785Z" fill="#903DE2"/>
<path opacity="0.4" d="M137.198 403.785L100.962 382.644C100.881 382.596 100.813 382.528 100.767 382.446C100.72 382.365 100.695 382.272 100.695 382.178C100.695 382.084 100.72 381.992 100.767 381.91C100.813 381.829 100.881 381.761 100.962 381.713L141.131 356.957L137.198 403.785Z" fill="black"/>
<path d="M137.198 403.785L177.6 380.392V369.758L137.198 393.056V403.785Z" fill="#903DE2"/>
<path opacity="0.2" d="M137.198 403.785L177.6 380.392V369.758L137.198 393.056V403.785Z" fill="black"/>
<path d="M169.714 381.988L153.763 391.195C152.706 391.808 151.839 391.195 151.839 389.747C151.849 389.027 152.028 388.32 152.362 387.683C152.696 387.046 153.176 386.496 153.763 386.079L169.714 376.861C170.771 376.248 171.638 376.861 171.638 378.32C171.626 379.039 171.445 379.745 171.111 380.382C170.777 381.019 170.299 381.569 169.714 381.988Z" fill="#E6E6E6"/>
<path d="M149.492 391.142C149.452 391.912 149.23 392.661 148.844 393.328C148.458 393.995 147.919 394.561 147.272 394.98C146.056 395.688 145.063 395.117 145.063 393.701C145.104 392.932 145.326 392.185 145.71 391.518C146.094 390.852 146.629 390.285 147.272 389.863C148.498 389.155 149.492 389.726 149.492 391.142Z" fill="#E6E6E6"/>
<path d="M137.198 393.056L101.099 376.09C101.013 376.042 100.942 375.972 100.892 375.888C100.842 375.803 100.815 375.707 100.815 375.609C100.815 375.51 100.842 375.414 100.892 375.33C100.942 375.245 101.013 375.175 101.099 375.128L139.809 352.105C140.028 351.974 140.277 351.901 140.532 351.892C140.787 351.883 141.04 351.938 141.268 352.052L177.653 369.758L137.198 393.056Z" fill="#903DE2"/>
<path d="M103.425 377.178V381.745L133.329 398.658V391.238L103.425 377.178Z" fill="#F5F5F5"/>
<path d="M133.329 398.658L137.198 396.238V393.056L133.329 391.238V398.658Z" fill="#E0E0E0"/>
<path d="M100.845 370.921V359.124H166.722C166.944 359.124 174.016 362.813 177.145 364.409C177.286 364.486 177.404 364.6 177.486 364.739C177.568 364.877 177.611 365.035 177.611 365.196C177.611 365.357 177.568 365.515 177.486 365.654C177.404 365.793 177.286 365.906 177.145 365.984L138.097 388.066C137.819 388.209 137.511 388.284 137.198 388.284C136.886 388.284 136.578 388.209 136.3 388.066L100.845 370.921Z" fill="#903DE2"/>
<path opacity="0.4" d="M100.845 370.921V359.124H166.722C166.944 359.124 174.016 362.813 177.145 364.409C177.286 364.486 177.404 364.6 177.486 364.739C177.568 364.877 177.611 365.035 177.611 365.196C177.611 365.357 177.568 365.515 177.486 365.654C177.404 365.793 177.286 365.906 177.145 365.984L138.097 388.066C137.819 388.209 137.511 388.284 137.198 388.284C136.886 388.284 136.578 388.209 136.3 388.066L100.845 370.921Z" fill="black"/>
<path d="M137.241 385.318L174.629 364.293V359.726L137.241 379.62V385.318Z" fill="#E0E0E0"/>
<path d="M100.845 370.921L110.613 365.202L100.845 359.124V370.921Z" fill="#903DE2"/>
<path opacity="0.6" d="M100.845 370.921L110.613 365.202L100.845 359.124V370.921Z" fill="black"/>
<path d="M107.008 362.961V369.472L137.24 385.318V379.62L107.008 362.961Z" fill="#F5F5F5"/>
<path d="M100.845 359.124L135.993 380.075C136.376 380.305 136.811 380.433 137.257 380.445C137.703 380.458 138.145 380.356 138.541 380.149L177.293 359.853C177.43 359.778 177.544 359.669 177.626 359.536C177.707 359.404 177.753 359.252 177.758 359.096C177.764 358.941 177.728 358.787 177.656 358.649C177.584 358.511 177.477 358.394 177.346 358.31L141.976 335.318L100.845 359.124Z" fill="#903DE2"/>
<path d="M137.24 376.407L101.014 355.265C100.933 355.218 100.866 355.15 100.819 355.068C100.772 354.987 100.748 354.894 100.748 354.8C100.748 354.706 100.772 354.614 100.819 354.532C100.866 354.451 100.933 354.383 101.014 354.335L141.183 329.589L137.24 376.407Z" fill="#903DE2"/>
<path opacity="0.4" d="M137.24 376.407L101.014 355.265C100.933 355.218 100.866 355.15 100.819 355.068C100.772 354.987 100.748 354.894 100.748 354.8C100.748 354.706 100.772 354.614 100.819 354.532C100.866 354.451 100.933 354.383 101.014 354.335L141.183 329.589L137.24 376.407Z" fill="black"/>
<path d="M137.241 376.407L177.642 353.014V342.39L137.241 365.678V376.407Z" fill="#903DE2"/>
<path opacity="0.2" d="M137.241 376.407L177.642 353.014V342.39L137.241 365.678V376.407Z" fill="black"/>
<path d="M169.767 354.663L153.805 363.87C152.748 364.483 151.891 363.87 151.891 362.422C151.902 361.702 152.08 360.994 152.412 360.356C152.744 359.717 153.221 359.165 153.805 358.743L169.767 349.536C170.824 348.923 171.68 349.536 171.68 350.984C171.67 351.704 171.491 352.412 171.159 353.05C170.827 353.689 170.35 354.241 169.767 354.663Z" fill="#E6E6E6"/>
<path d="M149.545 363.775C149.502 364.544 149.279 365.292 148.893 365.959C148.508 366.625 147.97 367.192 147.325 367.612C146.099 368.32 145.105 367.749 145.105 366.333C145.147 365.562 145.37 364.813 145.756 364.144C146.141 363.476 146.679 362.907 147.325 362.485C148.551 361.788 149.545 362.358 149.545 363.775Z" fill="#E6E6E6"/>
<path d="M137.241 365.677L101.152 348.764C101.066 348.717 100.994 348.647 100.945 348.562C100.895 348.478 100.868 348.381 100.868 348.283C100.868 348.185 100.895 348.089 100.945 348.004C100.994 347.919 101.066 347.85 101.152 347.802L139.862 324.779C140.081 324.65 140.329 324.576 140.584 324.565C140.838 324.554 141.091 324.606 141.321 324.716L177.653 342.39L137.241 365.677Z" fill="#903DE2"/>
<path d="M103.477 349.811V354.367L133.382 371.291V363.859L103.477 349.811Z" fill="#F5F5F5"/>
<path d="M133.382 371.291L137.24 368.87V365.678L133.382 363.859V371.291Z" fill="#E0E0E0"/>
<path d="M136.236 335.043L177.748 311.27L144.777 293.099L104.725 316.682L136.236 335.043Z" fill="#FAFAFA"/>
<path d="M137.663 331.069C137.604 331.084 137.542 331.084 137.484 331.069L113.382 316.978C113.34 316.954 113.302 316.921 113.272 316.883C113.242 316.844 113.22 316.8 113.208 316.753C113.195 316.706 113.192 316.656 113.198 316.608C113.204 316.56 113.22 316.513 113.245 316.471C113.269 316.429 113.301 316.393 113.339 316.364C113.377 316.336 113.42 316.315 113.467 316.303C113.513 316.291 113.561 316.289 113.608 316.296C113.655 316.303 113.701 316.319 113.742 316.344L137.853 330.392C137.896 330.415 137.933 330.447 137.963 330.484C137.992 330.522 138.014 330.565 138.027 330.612C138.04 330.658 138.043 330.706 138.037 330.754C138.031 330.802 138.015 330.848 137.991 330.889C137.956 330.944 137.907 330.989 137.85 331.021C137.793 331.052 137.728 331.069 137.663 331.069Z" fill="#E0E0E0"/>
<path d="M141.627 328.669C141.568 328.685 141.506 328.685 141.447 328.669L117.336 314.621C117.252 314.57 117.191 314.489 117.165 314.395C117.14 314.3 117.151 314.199 117.198 314.113C117.222 314.071 117.255 314.033 117.293 314.003C117.332 313.974 117.377 313.952 117.424 313.94C117.472 313.929 117.521 313.926 117.57 313.934C117.618 313.942 117.664 313.96 117.706 313.986L141.807 328.035C141.878 328.073 141.935 328.134 141.968 328.209C142 328.283 142.006 328.366 141.985 328.445C141.965 328.523 141.918 328.592 141.853 328.64C141.788 328.689 141.708 328.714 141.627 328.712V328.669Z" fill="#E0E0E0"/>
<path d="M145.475 326.386C145.416 326.401 145.354 326.401 145.296 326.386L121.184 312.337C121.1 312.287 121.039 312.205 121.015 312.11C120.991 312.015 121.006 311.914 121.057 311.83C121.081 311.789 121.113 311.753 121.151 311.724C121.189 311.695 121.232 311.674 121.279 311.662C121.325 311.65 121.373 311.648 121.42 311.655C121.467 311.662 121.513 311.678 121.554 311.703L145.666 325.752C145.75 325.802 145.81 325.884 145.834 325.979C145.858 326.074 145.843 326.175 145.792 326.259C145.754 326.305 145.705 326.34 145.65 326.362C145.594 326.385 145.534 326.393 145.475 326.386Z" fill="#E0E0E0"/>
<path d="M149.439 323.987C149.372 323.984 149.307 323.966 149.249 323.934L125.147 309.885C125.105 309.862 125.068 309.831 125.038 309.793C125.009 309.755 124.987 309.712 124.974 309.666C124.961 309.619 124.958 309.571 124.964 309.523C124.97 309.476 124.986 309.43 125.01 309.388C125.034 309.346 125.066 309.308 125.105 309.279C125.144 309.249 125.188 309.227 125.235 309.214C125.282 309.201 125.332 309.198 125.38 309.204C125.428 309.21 125.475 309.226 125.517 309.251L149.619 323.299C149.703 323.35 149.764 323.431 149.789 323.526C149.815 323.62 149.803 323.721 149.756 323.807C149.723 323.861 149.676 323.906 149.621 323.937C149.565 323.969 149.503 323.986 149.439 323.987Z" fill="#E0E0E0"/>
<path d="M153.393 321.587C153.328 321.591 153.265 321.572 153.213 321.534L129.101 307.485C129.06 307.461 129.024 307.429 128.995 307.391C128.966 307.353 128.945 307.31 128.933 307.263C128.922 307.217 128.919 307.169 128.926 307.122C128.933 307.075 128.949 307.029 128.974 306.988C128.997 306.946 129.029 306.909 129.066 306.879C129.104 306.85 129.147 306.828 129.193 306.815C129.24 306.802 129.288 306.799 129.336 306.805C129.384 306.811 129.429 306.827 129.471 306.851L153.583 320.9C153.667 320.95 153.728 321.032 153.751 321.127C153.775 321.222 153.76 321.323 153.71 321.407C153.678 321.462 153.631 321.508 153.576 321.54C153.52 321.572 153.457 321.588 153.393 321.587Z" fill="#E0E0E0"/>
<path d="M157.346 319.187C157.287 319.206 157.225 319.206 157.166 319.187L133.065 305.139C133.023 305.116 132.986 305.084 132.956 305.047C132.926 305.009 132.904 304.966 132.891 304.919C132.878 304.873 132.875 304.825 132.881 304.777C132.887 304.729 132.903 304.683 132.927 304.642C132.978 304.558 133.059 304.497 133.154 304.471C133.248 304.446 133.349 304.458 133.435 304.504L157.568 318.5C157.652 318.551 157.713 318.632 157.738 318.726C157.764 318.821 157.752 318.922 157.705 319.008C157.667 319.067 157.614 319.115 157.55 319.147C157.487 319.179 157.416 319.193 157.346 319.187Z" fill="#E0E0E0"/>
<path d="M161.31 316.788C161.246 316.792 161.182 316.773 161.131 316.735L137.019 302.707C136.976 302.684 136.939 302.653 136.91 302.615C136.88 302.578 136.858 302.534 136.845 302.488C136.832 302.442 136.829 302.393 136.835 302.346C136.841 302.298 136.857 302.252 136.881 302.21C136.932 302.127 137.013 302.066 137.107 302.04C137.202 302.014 137.303 302.026 137.389 302.073L161.49 316.122C161.532 316.146 161.57 316.178 161.6 316.217C161.63 316.255 161.652 316.299 161.664 316.347C161.677 316.394 161.681 316.443 161.674 316.492C161.668 316.54 161.652 316.587 161.627 316.629C161.593 316.681 161.545 316.722 161.49 316.75C161.434 316.778 161.372 316.791 161.31 316.788Z" fill="#E0E0E0"/>
<path d="M165.274 314.388C165.212 314.403 165.146 314.403 165.084 314.388L140.982 300.329C140.94 300.306 140.903 300.274 140.873 300.237C140.844 300.199 140.822 300.156 140.809 300.11C140.796 300.063 140.793 300.015 140.799 299.967C140.805 299.919 140.821 299.874 140.845 299.832C140.896 299.748 140.977 299.687 141.071 299.662C141.166 299.636 141.266 299.648 141.352 299.695L165.454 313.743C165.538 313.794 165.599 313.875 165.624 313.969C165.65 314.064 165.638 314.165 165.591 314.251C165.553 314.297 165.504 314.334 165.449 314.357C165.394 314.381 165.334 314.392 165.274 314.388Z" fill="#E0E0E0"/>
<path d="M169.196 311.989C169.134 312.003 169.068 312.003 169.006 311.989L144.904 297.94C144.862 297.916 144.825 297.883 144.795 297.845C144.765 297.806 144.743 297.762 144.731 297.715C144.718 297.668 144.715 297.618 144.721 297.57C144.727 297.522 144.743 297.475 144.767 297.433C144.791 297.39 144.824 297.353 144.862 297.323C144.901 297.293 144.945 297.272 144.992 297.259C145.039 297.246 145.089 297.243 145.137 297.249C145.185 297.255 145.232 297.271 145.274 297.295L169.376 311.344C169.418 311.368 169.456 311.4 169.486 311.439C169.515 311.477 169.537 311.522 169.55 311.569C169.563 311.616 169.566 311.665 169.56 311.714C169.554 311.762 169.538 311.809 169.513 311.851C169.476 311.899 169.428 311.936 169.372 311.96C169.317 311.984 169.256 311.994 169.196 311.989Z" fill="#E0E0E0"/>
<path d="M104.841 316.555L136.352 334.927V363.151L104.841 345.752V316.555Z" fill="#F0F0F0"/>
<path d="M136.352 334.927L177.864 311.143V339.05L136.352 363.151V334.927Z" fill="#E6E6E6"/>
<path d="M129.577 337.686L136.353 341.629L151.014 333.236L136.353 343.775L129.577 337.686Z" fill="#E0E0E0"/>
<path d="M129.577 347.506L136.353 351.46L144.63 346.714L136.353 353.606L129.577 347.506Z" fill="#E0E0E0"/>
<path d="M140.295 342.961L145.475 344.504L149.439 338.511L140.295 342.961Z" fill="#E0E0E0"/>
<path d="M140.295 342.961L155.93 334.05L148.107 342.961H140.295Z" fill="white"/>
<path d="M163.689 323.828L167.357 324.917L170.158 320.678L163.689 323.828Z" fill="#E0E0E0"/>
<path d="M163.689 323.828L174.756 317.517L169.228 323.828H163.689Z" fill="white"/>
<path d="M155.782 344.811L159.45 345.9L162.251 341.661L155.782 344.811Z" fill="#E0E0E0"/>
<path d="M155.782 344.811L166.849 338.511L161.31 344.811H155.782Z" fill="white"/>
<path d="M116.152 345.688L113.467 346.492L111.405 343.373L116.152 345.688Z" fill="#E0E0E0"/>
<path d="M116.152 345.688L108.033 341.058L112.093 345.688H116.152Z" fill="white"/>
<path d="M126.723 334.61L123.055 335.699L120.253 331.46L126.723 334.61Z" fill="#E0E0E0"/>
<path d="M126.723 334.61L115.655 328.31L121.194 334.61H126.723Z" fill="white"/>
<path d="M384.808 391.83L381.288 390.36L382.197 386.09L384.808 391.83Z" fill="#37474F"/>
<path d="M388.772 380.339L390.273 387.051L384.808 391.829L382.197 386.089L388.772 380.339Z" fill="#455A64"/>
<path d="M373.698 373.373C372.656 376.154 371.912 379.039 371.478 381.977C370.75 386.144 368.817 390.006 365.918 393.087C363.35 395.455 358.762 400.91 366.722 401.882C374.956 402.939 381.859 396.089 381.965 392.316C382.07 388.542 383.075 385.582 385.136 383.859C387.197 382.136 388.804 380.371 388.804 380.371C388.804 380.371 385.136 367.2 381.996 367.939C378.857 368.679 373.698 373.373 373.698 373.373Z" fill="#263238"/>
<path d="M376.88 360.487C374.512 356.914 371.838 352.707 369.681 348.859C364.607 339.726 356.922 325.223 349.385 322.327V260.752L320.443 259.42C320.443 259.42 310.929 293.151 324.449 320.265C334.111 339.684 355.104 359.927 366.193 369.842C369.66 369.303 376.003 367.305 376.88 360.487Z" fill="#455A64"/>
<path d="M382.726 368.975C382.726 368.975 380.083 365.328 376.869 360.519C375.992 367.337 369.65 369.303 366.182 369.874C370.58 373.796 373.444 376.111 373.444 376.111C373.444 376.111 382.874 377.39 382.726 368.975Z" fill="#945959"/>
<path d="M323.36 317.887L331.119 279.599C331.119 279.599 325.326 276.217 325.326 267.274C325.326 267.274 324.597 275.9 328.497 282.136L321.827 314.145C322.292 315.392 322.81 316.65 323.36 317.887Z" fill="#37474F"/>
<path d="M349.386 322.295V320.075L345.728 322.443L338.984 332.876L338.35 341.069C341.003 344.335 343.772 347.506 346.531 350.508L347.081 337.083L352.155 323.828C351.303 323.197 350.372 322.682 349.386 322.295Z" fill="#37474F"/>
<path d="M322.758 423.922L319.185 421.893L322.758 417.157V423.922Z" fill="#37474F"/>
<path d="M327.958 414.842V420.835L322.758 423.922V417.157L327.958 414.842Z" fill="#455A64"/>
<path d="M316.669 402.136C316.669 402.136 314.639 401.312 312.705 408.362C310.77 415.413 302.758 419.99 300.728 421.216C298.699 422.443 293.329 427.559 300.728 430.201C308.128 432.844 317.546 428.954 319.756 424.504C321.965 420.054 323.096 417.347 327.948 414.842V405.846C327.948 404.113 326.13 402.855 324.978 402.559C323.825 402.263 316.669 402.136 316.669 402.136Z" fill="#263238"/>
<path d="M357.937 259.42L325.327 257.126V267.274C325.327 276.217 331.119 279.599 331.119 279.599L321.257 328.225C320.78 330.569 320.455 332.942 320.284 335.328L316.003 396.343C317.617 397.745 319.566 398.706 321.661 399.132C323.756 399.558 325.925 399.435 327.959 398.774C330.178 391.977 333.963 380.624 338.424 368.214C343.794 353.235 344.037 342.844 343.825 338.616C343.745 337.135 344.009 335.655 344.597 334.293C346.373 330.17 350.696 320.149 357.937 303.246C371.426 271.851 357.937 259.42 357.937 259.42Z" fill="#455A64"/>
<path d="M316.003 396.385L315.39 405.149C315.94 406.041 316.722 406.767 317.654 407.247C318.585 407.728 319.63 407.945 320.675 407.876C324.544 407.876 325.897 405.371 325.897 405.371C325.897 405.371 326.669 402.929 328.012 398.817C325.971 399.487 323.791 399.616 321.686 399.189C319.58 398.763 317.622 397.797 316.003 396.385Z" fill="#945959"/>
<path d="M328.572 212.454C328.572 212.454 319.46 212.803 316.278 219.484C313.096 226.164 308.551 239.663 308.551 239.663L320.77 242.412L328.572 212.454Z" fill="#903DE2"/>
<path opacity="0.2" d="M328.572 212.454C328.572 212.454 319.46 212.803 316.278 219.484C313.096 226.164 308.551 239.663 308.551 239.663L320.77 242.412L328.572 212.454Z" fill="white"/>
<path d="M348.054 213.828L357.937 215.541V237.739L354.851 249.536C354.851 249.536 355.432 255.879 357.937 259.388C357.937 259.388 340.347 272.729 320.443 259.388C320.443 259.388 321.214 247.76 321.214 244.505C321.214 244.505 314.47 240.445 315.136 234.261C315.802 228.078 328.572 212.422 328.572 212.422L335.591 212.327L348.054 213.828Z" fill="#903DE2"/>
<path opacity="0.4" d="M348.054 213.828L357.937 215.541V237.739L354.851 249.536C354.851 249.536 355.432 255.879 357.937 259.388C357.937 259.388 340.347 272.729 320.443 259.388C320.443 259.388 321.214 247.76 321.214 244.505C321.214 244.505 314.47 240.445 315.136 234.261C315.802 228.078 328.572 212.422 328.572 212.422L335.591 212.327L348.054 213.828Z" fill="white"/>
<path d="M331.066 168.458C331.066 168.458 322.525 165.499 320.443 174.241C318.36 182.983 324.787 191.46 315.157 194.325C315.157 194.325 320.834 199.05 325.823 190.234L330.052 208.205C330.052 208.205 330.052 209.188 328.561 209.938C328.561 209.938 352.874 215.329 357.472 203.226C358.119 203.924 358.559 204.787 358.746 205.719C358.933 206.652 358.858 207.618 358.529 208.511C358.529 208.511 365.686 205.615 363.677 196.344C363.677 196.344 369.333 196.186 370.675 191.577C370.675 191.577 361.627 192.01 361.679 182.063C361.743 170.52 355.665 172.19 355.665 172.19C355.665 172.19 348.233 161.122 331.066 168.458Z" fill="#263238"/>
<path d="M335.591 204.653V212.359C335.591 212.359 328.667 224.293 331.362 225.044C336.521 226.492 348.001 213.807 348.001 213.807V197.528L335.591 204.653Z" fill="#945959"/>
<path d="M347.916 194.949V195.403C345.136 206.355 337.916 208.744 335.591 209.304L335.506 192.391L347.557 192.338L347.916 194.949Z" fill="#703838"/>
<path d="M336.373 170.573C331.775 170.953 322.208 174.315 322.06 186.429C321.912 198.543 323.773 207.813 330.062 208.194C336.352 208.574 350.411 202.909 351.056 187.158C351.701 171.408 340.866 170.181 336.373 170.573Z" fill="#945959"/>
<path d="M330.559 191.302L330.665 198.426L326.479 197.211L330.559 191.302Z" fill="#703838"/>
<path d="M336.817 191.112C336.786 191.476 336.619 191.815 336.35 192.062C336.081 192.309 335.729 192.446 335.363 192.446C334.998 192.446 334.646 192.309 334.377 192.062C334.108 191.815 333.941 191.476 333.91 191.112C333.907 190.726 334.056 190.354 334.325 190.077C334.594 189.8 334.962 189.64 335.348 189.632C335.542 189.629 335.736 189.665 335.916 189.739C336.096 189.812 336.26 189.921 336.397 190.059C336.534 190.198 336.642 190.362 336.714 190.543C336.786 190.724 336.821 190.917 336.817 191.112Z" fill="#263238"/>
<path d="M327.261 190.234C327.265 190.523 327.183 190.806 327.027 191.048C326.87 191.29 326.645 191.481 326.38 191.595C326.115 191.709 325.822 191.742 325.538 191.69C325.255 191.638 324.993 191.503 324.786 191.302C324.579 191.101 324.436 190.843 324.376 190.561C324.315 190.279 324.34 189.985 324.446 189.717C324.553 189.449 324.737 189.218 324.974 189.054C325.212 188.891 325.492 188.801 325.781 188.797C325.973 188.793 326.164 188.827 326.342 188.897C326.521 188.967 326.684 189.072 326.822 189.206C326.959 189.34 327.069 189.499 327.145 189.676C327.22 189.853 327.259 190.042 327.261 190.234Z" fill="#263238"/>
<path d="M323.994 187.253L326.806 185.53C326.806 185.53 325.749 184.41 324.629 185.107C324.319 185.359 324.092 185.699 323.979 186.082C323.865 186.465 323.871 186.873 323.994 187.253Z" fill="#903DE2"/>
<path d="M323.994 187.253L326.806 185.53C326.806 185.53 325.749 184.41 324.629 185.107C324.319 185.359 324.092 185.699 323.979 186.082C323.865 186.465 323.871 186.873 323.994 187.253Z" fill="#263238"/>
<path d="M343.963 190.456C343.963 190.456 343.677 195.562 346.616 195.562H352.377V185.826C352.377 174.907 344.1 163.501 326.479 172.518C326.479 172.518 325.644 187.095 343.963 190.456Z" fill="#263238"/>
<path d="M346.595 194.959C346.567 193.868 346.784 192.785 347.229 191.788C347.447 191.153 347.847 190.596 348.379 190.186C348.91 189.777 349.551 189.532 350.221 189.484C353.656 189.431 354.079 192.74 354.026 193.913C353.867 197 351.341 200.308 346.626 200.382L346.595 194.959Z" fill="#945959"/>
<path d="M334.375 200.678C334.375 200.914 334.305 201.145 334.174 201.342C334.042 201.538 333.856 201.691 333.638 201.782C333.419 201.872 333.179 201.896 332.947 201.85C332.716 201.804 332.503 201.69 332.336 201.523C332.169 201.356 332.055 201.143 332.009 200.911C331.963 200.679 331.986 200.439 332.077 200.221C332.167 200.003 332.32 199.816 332.517 199.685C332.713 199.554 332.944 199.484 333.18 199.484C333.497 199.484 333.801 199.609 334.025 199.833C334.249 200.058 334.375 200.361 334.375 200.678Z" fill="#703838"/>
<path d="M357.937 215.541C357.937 215.541 349.819 218.49 353.371 232.697C356.922 246.904 360.337 258.796 360.337 258.796L346.204 267.253C346.204 267.253 351.341 269.716 350.189 278.775C350.189 278.775 368.666 274.209 372.948 271.101C377.229 267.993 375.77 258.913 374.755 253.913C373.74 248.913 368.962 228.617 368.233 225.858C367.504 223.099 365.347 216.83 357.937 215.541Z" fill="#903DE2"/>
<path opacity="0.2" d="M357.937 215.541C357.937 215.541 349.819 218.49 353.371 232.697C356.922 246.904 360.337 258.796 360.337 258.796L346.204 267.253C346.204 267.253 351.341 269.716 350.189 278.775C350.189 278.775 368.666 274.209 372.948 271.101C377.229 267.993 375.77 258.913 374.755 253.913C373.74 248.913 368.962 228.617 368.233 225.858C367.504 223.099 365.347 216.83 357.937 215.541Z" fill="white"/>
<path d="M360.337 258.796C363.136 258.56 365.935 259.247 368.307 260.752C367.256 259.491 365.945 258.471 364.463 257.764C362.982 257.056 361.365 256.676 359.723 256.65L360.337 258.796Z" fill="#903DE2"/>
<path d="M302.081 292.866L265.845 271.724C265.764 271.677 265.696 271.609 265.65 271.527C265.603 271.446 265.578 271.353 265.578 271.259C265.578 271.165 265.603 271.073 265.65 270.991C265.696 270.91 265.764 270.842 265.845 270.794L306.014 246.037L302.081 292.866Z" fill="#903DE2"/>
<path opacity="0.4" d="M302.081 292.866L265.845 271.724C265.764 271.677 265.696 271.609 265.65 271.527C265.603 271.446 265.578 271.353 265.578 271.259C265.578 271.165 265.603 271.073 265.65 270.991C265.696 270.91 265.764 270.842 265.845 270.794L306.014 246.037L302.081 292.866Z" fill="black"/>
<path d="M302.081 292.866L342.483 269.473V258.839L302.081 282.137V292.866Z" fill="#903DE2"/>
<path opacity="0.2" d="M302.081 292.866L342.483 269.473V258.839L302.081 282.137V292.866Z" fill="black"/>
<path d="M334.597 271.111L318.646 280.329C317.589 280.942 316.722 280.329 316.722 278.87C316.732 278.151 316.911 277.443 317.245 276.806C317.579 276.169 318.059 275.619 318.646 275.202L334.597 265.995C335.654 265.382 336.521 265.995 336.521 267.443C336.509 268.162 336.328 268.869 335.994 269.505C335.66 270.142 335.182 270.692 334.597 271.111Z" fill="#E6E6E6"/>
<path d="M314.375 280.223C314.333 280.994 314.11 281.744 313.725 282.412C313.339 283.081 312.801 283.649 312.155 284.071C310.929 284.779 309.946 284.198 309.946 282.792C309.986 282.022 310.207 281.273 310.591 280.604C310.974 279.935 311.51 279.367 312.155 278.944C313.381 278.236 314.375 278.807 314.375 280.223Z" fill="#E6E6E6"/>
<path d="M302.081 282.137L265.982 265.171C265.896 265.125 265.824 265.056 265.773 264.972C265.723 264.888 265.696 264.793 265.696 264.695C265.696 264.597 265.723 264.501 265.773 264.418C265.824 264.334 265.896 264.265 265.982 264.219L304.692 241.196C304.91 241.064 305.158 240.989 305.413 240.978C305.668 240.967 305.922 241.02 306.151 241.133L342.525 258.839L302.081 282.137Z" fill="#903DE2"/>
<path d="M268.308 266.259V270.826L298.212 287.739V280.318L268.308 266.259Z" fill="#F5F5F5"/>
<path d="M298.212 287.739L302.081 285.329V282.137L298.212 280.318V287.739Z" fill="#E0E0E0"/>
<path d="M350.189 278.796C350.189 278.796 334.333 282.21 332.863 282.57C331.394 282.929 323.73 285.329 317.419 283.944L333.001 274.959C333.001 274.959 325.052 273.014 326.193 270.54C326.627 269.599 341.415 270.107 341.415 270.107L346.204 267.274C346.204 267.274 354.681 268.363 350.189 278.796Z" fill="#945959"/>
<path d="M265.676 260.773V248.987H331.553C331.785 248.987 338.857 252.665 341.986 254.272C342.127 254.351 342.244 254.466 342.326 254.605C342.407 254.745 342.45 254.903 342.45 255.065C342.45 255.226 342.407 255.385 342.326 255.524C342.244 255.663 342.127 255.779 341.986 255.858L302.948 277.929C302.674 278.086 302.366 278.172 302.051 278.181C301.736 278.191 301.423 278.122 301.141 277.982L265.676 260.773Z" fill="#903DE2"/>
<path opacity="0.4" d="M265.676 260.773V248.987H331.553C331.785 248.987 338.857 252.665 341.986 254.272C342.127 254.351 342.244 254.466 342.326 254.605C342.407 254.745 342.45 254.903 342.45 255.065C342.45 255.226 342.407 255.385 342.326 255.524C342.244 255.663 342.127 255.779 341.986 255.858L302.948 277.929C302.674 278.086 302.366 278.172 302.051 278.181C301.736 278.191 301.423 278.122 301.141 277.982L265.676 260.773Z" fill="black"/>
<path d="M302.081 275.17L339.459 254.156V249.589L302.081 269.473V275.17Z" fill="#E0E0E0"/>
<path d="M265.676 260.773L275.443 255.054L265.676 248.987V260.773Z" fill="#903DE2"/>
<path opacity="0.6" d="M265.676 260.773L275.443 255.054L265.676 248.987V260.773Z" fill="black"/>
<path d="M271.849 252.813V259.325L302.081 275.17V269.473L271.849 252.813Z" fill="#F5F5F5"/>
<path d="M265.676 248.986L300.823 269.938C301.205 270.17 301.641 270.298 302.087 270.311C302.534 270.324 302.976 270.221 303.371 270.012L342.123 249.716C342.26 249.641 342.375 249.532 342.456 249.399C342.538 249.266 342.583 249.115 342.589 248.959C342.594 248.804 342.559 248.649 342.486 248.511C342.414 248.373 342.307 248.257 342.176 248.173L306.817 225.192L265.676 248.986Z" fill="#903DE2"/>
<path d="M302.081 266.27L265.845 245.128C265.764 245.081 265.696 245.013 265.65 244.931C265.603 244.85 265.578 244.757 265.578 244.663C265.578 244.569 265.603 244.477 265.65 244.395C265.696 244.314 265.764 244.246 265.845 244.198L306.014 219.441L302.081 266.27Z" fill="#903DE2"/>
<path opacity="0.4" d="M302.081 266.27L265.845 245.128C265.764 245.081 265.696 245.013 265.65 244.931C265.603 244.85 265.578 244.757 265.578 244.663C265.578 244.569 265.603 244.477 265.65 244.395C265.696 244.314 265.764 244.246 265.845 244.198L306.014 219.441L302.081 266.27Z" fill="black"/>
<path d="M302.081 266.259L342.483 242.877V232.242L302.081 255.54V266.259Z" fill="#903DE2"/>
<path opacity="0.2" d="M302.081 266.259L342.483 242.877V232.242L302.081 255.54V266.259Z" fill="black"/>
<path d="M334.597 244.568L318.646 253.775C317.589 254.388 316.722 253.775 316.722 252.327C316.732 251.607 316.911 250.9 317.245 250.263C317.579 249.626 318.059 249.076 318.646 248.659L334.597 239.441C335.654 238.839 336.521 239.441 336.521 240.9C336.509 241.619 336.328 242.325 335.994 242.962C335.66 243.599 335.182 244.149 334.597 244.568Z" fill="#E6E6E6"/>
<path d="M314.375 253.627C314.335 254.397 314.113 255.146 313.727 255.813C313.341 256.48 312.802 257.046 312.155 257.464C310.929 258.173 309.946 257.602 309.946 256.185C309.987 255.417 310.208 254.669 310.592 254.002C310.976 253.336 311.511 252.769 312.155 252.348C313.381 251.64 314.375 252.211 314.375 253.627Z" fill="#E6E6E6"/>
<path d="M302.081 255.541L265.982 238.627C265.896 238.58 265.824 238.51 265.774 238.425C265.725 238.341 265.698 238.244 265.698 238.146C265.698 238.048 265.725 237.952 265.774 237.867C265.824 237.783 265.896 237.713 265.982 237.665L304.692 214.642C304.916 214.52 305.167 214.456 305.421 214.456C305.676 214.456 305.927 214.52 306.151 214.642L342.525 232.348L302.081 255.541Z" fill="#903DE2"/>
<path d="M268.308 239.663V244.23L298.212 261.143V253.722L268.308 239.663Z" fill="#F5F5F5"/>
<path d="M298.212 261.143L302.081 258.722V255.541L298.212 253.722V261.143Z" fill="#E0E0E0"/>
</svg>
